<svg width="80" height="81" viewBox="0 0 80 81" fill="none" xmlns="http://www.w3.org/2000/svg">
<path d="M34.6285 62.6741C34.535 61.5293 34.5334 60.0567 34.5334 57.9329V48.5462C34.5334 46.4223 34.535 44.9497 34.6285 43.805C34.7201 42.6836 34.89 42.054 35.1293 41.5844C35.6534 40.5557 36.4897 39.7195 37.5183 39.1953C37.988 38.956 38.6175 38.7862 39.7389 38.6946C40.8836 38.6011 42.3562 38.5995 44.4801 38.5995H65.3868C67.5106 38.5995 68.9833 38.6011 70.128 38.6946C71.2494 38.7862 71.8789 38.956 72.3486 39.1953C73.3772 39.7195 74.2135 40.5557 74.7376 41.5844C74.9769 42.054 75.1467 42.6836 75.2384 43.8049C75.3319 44.9497 75.3334 46.4223 75.3334 48.5462V58.6795C75.3334 60.4464 75.3324 61.6714 75.267 62.6288C75.2029 63.5683 75.0837 64.1031 74.9173 64.5049C74.3625 65.8443 73.2983 66.9086 71.9588 67.4634C71.557 67.6298 71.0222 67.749 70.0827 67.8131C69.1253 67.8784 67.9003 67.8795 66.1334 67.8795C65.0289 67.8795 64.1334 68.7749 64.1334 69.8795V73.8398L59.1499 70.3751L59.0121 70.2793C58.0024 69.5769 57.2894 69.0809 56.4985 68.7227C55.7991 68.406 55.0638 68.1755 54.3088 68.0363C53.455 67.879 52.5864 67.8792 51.3567 67.8795L51.1886 67.8795H44.4801C42.3562 67.8795 40.8836 67.878 39.7389 67.7844C38.6175 67.6928 37.988 67.523 37.5183 67.2837C36.4897 66.7596 35.6534 65.9233 35.1293 64.8947C34.89 64.425 34.7201 63.7955 34.6285 62.6741Z" fill="#4D1774" fill-opacity="0.12"/>
<path fill-rule="evenodd" clip-rule="evenodd" d="M65.3868 36.5995H44.4801C40.2984 36.5995 38.2075 36.5995 36.6103 37.4133C35.2054 38.1292 34.0631 39.2715 33.3473 40.6764C32.5334 42.2736 32.5334 44.3645 32.5334 48.5462V57.9329C32.5334 62.1146 32.5334 64.2055 33.3473 65.8027C34.0631 67.2076 35.2054 68.3499 36.6103 69.0657C38.2075 69.8795 40.2984 69.8795 44.4801 69.8795H51.1886C52.5797 69.8795 53.2752 69.8795 53.9462 70.0032C54.5418 70.113 55.1218 70.2948 55.6734 70.5446C56.2949 70.8261 56.866 71.2231 58.0082 72.0172L66.1334 77.6662V69.8795C69.6125 69.8795 71.352 69.8795 72.7241 69.3112C74.5537 68.5533 76.0072 67.0998 76.7651 65.2702C77.3334 63.8981 77.3334 62.1586 77.3334 58.6795V48.5462C77.3334 44.3645 77.3334 42.2736 76.5196 40.6764C75.8038 39.2715 74.6615 38.1292 73.2566 37.4133C71.6594 36.5995 69.5685 36.5995 65.3868 36.5995ZM34.5334 57.9329C34.5334 60.0567 34.535 61.5293 34.6285 62.6741C34.7201 63.7955 34.89 64.425 35.1293 64.8947C35.6534 65.9233 36.4897 66.7596 37.5183 67.2837C37.988 67.523 38.6175 67.6928 39.7389 67.7844C40.8836 67.878 42.3562 67.8795 44.4801 67.8795H51.1886L51.3567 67.8795C52.5864 67.8792 53.455 67.879 54.3088 68.0363C55.0638 68.1755 55.7991 68.406 56.4985 68.7227C57.2894 69.0809 58.0024 69.5769 59.0121 70.2793L59.1499 70.3751L64.1334 73.8398V69.8795C64.1334 68.7749 65.0289 67.8795 66.1334 67.8795C67.9003 67.8795 69.1253 67.8784 70.0827 67.8131C71.0222 67.749 71.557 67.6298 71.9588 67.4634C73.2983 66.9086 74.3625 65.8443 74.9173 64.5049C75.0837 64.1031 75.2029 63.5683 75.267 62.6288C75.3324 61.6714 75.3334 60.4464 75.3334 58.6795V48.5462C75.3334 46.4223 75.3319 44.9497 75.2384 43.8049C75.1467 42.6836 74.9769 42.054 74.7376 41.5844C74.2135 40.5557 73.3772 39.7195 72.3486 39.1953C71.8789 38.956 71.2494 38.7862 70.128 38.6946C68.9833 38.6011 67.5106 38.5995 65.3868 38.5995H44.4801C42.3562 38.5995 40.8836 38.6011 39.7389 38.6946C38.6175 38.7862 37.988 38.956 37.5183 39.1953C36.4897 39.7195 35.6534 40.5557 35.1293 41.5844C34.89 42.054 34.7201 42.6836 34.6285 43.805C34.535 44.9497 34.5334 46.4223 34.5334 48.5462V57.9329Z" fill="#4D1774"/>
<path fill-rule="evenodd" clip-rule="evenodd" d="M55.7324 1.15875C53.7832 0.999486 51.3632 0.999497 48.3018 0.999512H20.4984C17.437 0.999497 15.017 0.999486 13.0678 1.15875C11.0765 1.32144 9.40094 1.66026 7.8741 2.43823C5.39036 3.70375 3.37102 5.7231 2.10549 8.20684C1.32752 9.73368 0.988702 11.4092 0.826006 13.4005C0.666747 15.3498 0.666758 17.7697 0.666773 20.8312L0.666773 38.2588L0.66676 38.4495C0.666584 40.1939 0.666473 41.2924 0.806144 42.2459C1.65139 48.0164 6.18324 52.5482 11.9537 53.3935C13.2841 53.5884 13.9408 54.4498 13.9408 55.2349L13.9408 61.1485C13.9408 62.2109 13.9408 63.1399 14.0048 63.8642C14.0647 64.5411 14.2054 65.5256 14.872 66.3031C15.6798 67.2454 16.8908 67.7426 18.1277 67.6398C19.1483 67.555 19.9401 66.9535 20.4584 66.5139C21.013 66.0436 21.6657 65.3827 22.4122 64.6267L30.5334 56.404V58.0177C30.5334 60.0365 30.5334 61.6729 30.6418 62.9998C30.7536 64.3686 30.9907 65.5831 31.5652 66.7106C32.4728 68.4919 33.9211 69.9401 35.7023 70.8477C36.8299 71.4222 38.0444 71.6593 39.4132 71.7711C40.74 71.8796 42.3764 71.8795 44.3951 71.8795H51.1886C52.651 71.8795 53.1338 71.8871 53.5838 71.9701C54.0198 72.0504 54.4444 72.1835 54.8483 72.3664C55.265 72.5552 55.6658 72.8245 56.8665 73.6593L64.9918 79.3083C65.6031 79.7334 66.4 79.7836 67.0599 79.4387C67.7198 79.0937 68.1334 78.4108 68.1334 77.6662V71.8741C68.9692 71.8665 69.7053 71.8482 70.355 71.8038C71.4981 71.7258 72.5191 71.5609 73.4895 71.1589C75.8091 70.1981 77.652 68.3552 78.6128 66.0356C79.0148 65.0652 79.1798 64.0442 79.2578 62.9011C79.3335 61.7914 79.3335 60.4297 79.3334 58.75V48.4612C79.3335 46.4424 79.3335 44.8061 79.2251 43.4792C79.1132 42.1105 78.8761 40.8959 78.3016 39.7684C77.394 37.9871 75.9458 36.5389 74.1646 35.6313C73.037 35.0568 71.8225 34.8197 70.4537 34.7079C69.7667 34.6517 68.9966 34.6247 68.1334 34.6116V20.8311C68.1335 17.7697 68.1335 15.3497 67.9742 13.4005C67.8115 11.4092 67.4727 9.73368 66.6947 8.20684C65.4292 5.7231 63.4099 3.70376 60.9261 2.43823C59.3993 1.66026 57.7238 1.32144 55.7324 1.15875ZM44.4801 36.5995H65.3868C69.5685 36.5995 71.6594 36.5995 73.2566 37.4133C74.6615 38.1292 75.8038 39.2715 76.5196 40.6764C77.3334 42.2736 77.3334 44.3645 77.3334 48.5462V58.6795C77.3334 62.1586 77.3334 63.8981 76.7651 65.2702C76.0072 67.0998 74.5537 68.5533 72.7241 69.3112C71.352 69.8795 69.6125 69.8795 66.1334 69.8795V77.6662L58.0082 72.0172C56.866 71.2231 56.2949 70.8261 55.6734 70.5446C55.1218 70.2948 54.5418 70.113 53.9462 70.0032C53.2752 69.8795 52.5797 69.8795 51.1886 69.8795H44.4801C40.2984 69.8795 38.2075 69.8795 36.6103 69.0657C35.2054 68.3499 34.0631 67.2076 33.3473 65.8027C32.5334 64.2055 32.5334 62.1146 32.5334 57.9329V48.5462C32.5334 44.3645 32.5334 42.2736 33.3473 40.6764C34.0631 39.2715 35.2054 38.1292 36.6103 37.4133C38.2075 36.5995 40.2984 36.5995 44.4801 36.5995ZM12.5334 49.4357C15.2489 49.8335 17.9408 51.9308 17.9408 55.2349V61.0586C17.9408 62.136 17.9424 62.8537 17.9782 63.3707C18.3669 63.028 18.8724 62.5185 19.6295 61.7519L30.5334 50.7117V48.4613C30.5334 46.4425 30.5334 44.8061 30.6418 43.4792C30.7536 42.1105 30.9907 40.8959 31.5652 39.7684C32.4728 37.9871 33.9211 36.5389 35.7023 35.6313C36.8299 35.0568 38.0444 34.8197 39.4132 34.7079C40.74 34.5995 42.3764 34.5995 44.3951 34.5995H64.1334V20.9195C64.1334 17.7502 64.1319 15.4935 63.9875 13.7262C63.845 11.9823 63.5735 10.8918 63.1307 10.0228C62.2487 8.29171 60.8412 6.88429 59.1102 6.00225C58.2412 5.55949 57.1507 5.28795 55.4067 5.14546C53.6394 5.00107 51.3827 4.99951 48.2134 4.99951H20.5868C17.4175 4.99951 15.1608 5.00107 13.3935 5.14546C11.6496 5.28795 10.559 5.55949 9.69006 6.00225C7.95897 6.88429 6.55155 8.29171 5.66951 10.0228C5.22675 10.8918 4.95521 11.9823 4.81272 13.7262C4.66833 15.4935 4.66677 17.7502 4.66677 20.9195V38.2588C4.66677 40.2561 4.6721 41.0394 4.76391 41.6662C5.35302 45.688 8.51159 48.8466 12.5334 49.4357Z" fill="#4D1774"/>
</svg>
