<svg width="80" height="81" viewBox="0 0 80 81" fill="none" xmlns="http://www.w3.org/2000/svg">
<g clip-path="url(#clip0_559_2668)">
<path d="M36.5668 19.4086C38.1192 16.8122 41.8808 16.8122 43.4332 19.4086L47.8697 26.8288C48.4296 27.7654 49.3478 28.4325 50.4115 28.6756L58.8395 30.602C61.7886 31.2761 62.951 34.8535 60.9613 37.1323L55.2752 43.6446C54.5576 44.4665 54.2068 45.546 54.3043 46.6327L55.0766 55.2435C55.3469 58.2566 52.3037 60.4675 49.5217 59.2794L41.571 55.8841C40.5675 55.4555 39.4325 55.4555 38.429 55.8841L30.4784 59.2794C27.6963 60.4675 24.6531 58.2566 24.9234 55.2435L25.6957 46.6327C25.7932 45.546 25.4424 44.4665 24.7248 43.6446L19.0387 37.1323C17.049 34.8535 18.2114 31.2761 21.1605 30.602L29.5885 28.6756C30.6522 28.4325 31.5704 27.7654 32.1304 26.8288L36.5668 19.4086Z" fill="#4D1774" fill-opacity="0.12"/>
<path fill-rule="evenodd" clip-rule="evenodd" d="M44.4365 28.8815L40 21.4613L35.5635 28.8815C34.4436 30.7545 32.6072 32.0888 30.4798 32.5751L22.0518 34.5014L27.7379 41.0138C29.1732 42.6576 29.8746 44.8165 29.6797 46.9901L28.9074 55.6008L36.8581 52.2055C38.865 51.3484 41.135 51.3484 43.1419 52.2055L51.0926 55.6008L50.3203 46.9901C50.1254 44.8165 50.8268 42.6576 52.2621 41.0138L57.9482 34.5014L49.5202 32.5751C47.3928 32.0888 45.5564 30.7545 44.4365 28.8815ZM43.4332 19.4086C41.8808 16.8122 38.1192 16.8122 36.5668 19.4086L32.1304 26.8288C31.5704 27.7654 30.6522 28.4325 29.5885 28.6756L21.1605 30.602C18.2114 31.2761 17.049 34.8535 19.0387 37.1323L24.7248 43.6446C25.4424 44.4665 25.7932 45.546 25.6957 46.6327L24.9234 55.2435C24.6531 58.2566 27.6963 60.4675 30.4784 59.2794L38.429 55.8841C39.4325 55.4555 40.5675 55.4555 41.571 55.8841L49.5217 59.2794C52.3037 60.4675 55.3469 58.2566 55.0766 55.2435L54.3043 46.6327C54.2068 45.546 54.5576 44.4665 55.2752 43.6446L60.9613 37.1323C62.951 34.8535 61.7886 31.2761 58.8395 30.602L50.4115 28.6756C49.3478 28.4325 48.4296 27.7654 47.8697 26.8288L43.4332 19.4086Z" fill="#4D1774"/>
<path fill-rule="evenodd" clip-rule="evenodd" d="M9.6 4.6665C6.50721 4.6665 4 7.17371 4 10.2665V21.6665C4 22.7711 3.10457 23.6665 2 23.6665C0.895431 23.6665 0 22.7711 0 21.6665V10.2665C0 4.96457 4.29807 0.666504 9.6 0.666504H21C22.1046 0.666504 23 1.56193 23 2.6665C23 3.77107 22.1046 4.6665 21 4.6665H9.6ZM57 2.6665C57 1.56193 57.8954 0.666504 59 0.666504H70.4C75.7019 0.666504 80 4.96457 80 10.2665V21.6665C80 22.7711 79.1046 23.6665 78 23.6665C76.8954 23.6665 76 22.7711 76 21.6665V10.2665C76 7.17371 73.4928 4.6665 70.4 4.6665H59C57.8954 4.6665 57 3.77107 57 2.6665ZM40 33.9165C41.1046 33.9165 42 34.8119 42 35.9165V38.6665H44.75C45.8546 38.6665 46.75 39.5619 46.75 40.6665C46.75 41.7711 45.8546 42.6665 44.75 42.6665H42V45.4165C42 46.5211 41.1046 47.4165 40 47.4165C38.8954 47.4165 38 46.5211 38 45.4165V42.6665H35.25C34.1454 42.6665 33.25 41.7711 33.25 40.6665C33.25 39.5619 34.1454 38.6665 35.25 38.6665H38V35.9165C38 34.8119 38.8954 33.9165 40 33.9165ZM2 57.6665C3.10457 57.6665 4 58.5619 4 59.6665V71.0665C4 74.1593 6.50721 76.6665 9.6 76.6665H21C22.1046 76.6665 23 77.5619 23 78.6665C23 79.7711 22.1046 80.6665 21 80.6665H9.6C4.29807 80.6665 0 76.3684 0 71.0665V59.6665C0 58.5619 0.895431 57.6665 2 57.6665ZM78 57.6665C79.1046 57.6665 80 58.5619 80 59.6665V71.0665C80 76.3684 75.7019 80.6665 70.4 80.6665H59C57.8954 80.6665 57 79.7711 57 78.6665C57 77.5619 57.8954 76.6665 59 76.6665H70.4C73.4928 76.6665 76 74.1593 76 71.0665V59.6665C76 58.5619 76.8954 57.6665 78 57.6665Z" fill="#4D1774"/>
</g>
<defs>
<clipPath id="clip0_559_2668">
<rect width="80" height="80" fill="white" transform="translate(0 0.333008)"/>
</clipPath>
</defs>
</svg>
