<svg width="80" height="81" viewBox="0 0 80 81" fill="none" xmlns="http://www.w3.org/2000/svg">
<g clip-path="url(#clip0_559_2670)">
<path fill-rule="evenodd" clip-rule="evenodd" d="M40.2221 48.333C38.3811 48.333 36.8888 49.8254 36.8888 51.6663C36.8888 52.8046 37.4575 53.8105 38.3354 54.415C39.0691 54.9201 39.3803 55.8496 39.0986 56.6947L36.9969 62.9997H43.4472L41.3456 56.6947C41.0639 55.8496 41.3751 54.9201 42.1088 54.415C42.9867 53.8105 43.5554 52.8046 43.5554 51.6663C43.5554 49.8254 42.063 48.333 40.2221 48.333ZM32.8888 51.6663C32.8888 47.6163 36.172 44.333 40.2221 44.333C44.2722 44.333 47.5554 47.6163 47.5554 51.6663C47.5554 53.6129 46.7959 55.3818 45.5614 56.693L47.242 61.7348C48.1053 64.3249 46.1775 66.9997 43.4472 66.9997H36.9969C34.2667 66.9997 32.3388 64.3249 33.2022 61.7348L34.8828 56.693C33.6482 55.3818 32.8888 53.6129 32.8888 51.6663Z" fill="#4D1774"/>
<path fill-rule="evenodd" clip-rule="evenodd" d="M70.8887 38.9997C70.8887 34.5814 67.307 30.9997 62.8887 30.9997H56.2221H26.2221V18.333C26.2221 10.601 32.4901 4.33301 40.2221 4.33301C47.9541 4.33301 54.2221 10.601 54.2221 18.333V18.7118C54.2221 19.8164 55.1175 20.7118 56.2221 20.7118C57.3267 20.7118 58.2221 19.8164 58.2221 18.7118V18.333C58.2221 8.39188 50.1632 0.333008 40.2221 0.333008C30.281 0.333008 22.2221 8.39188 22.2221 18.333V30.9997H17.5554C13.1371 30.9997 9.55542 34.5814 9.55542 38.9997V72.333C9.55542 76.7513 13.1371 80.333 17.5554 80.333H62.8887C67.307 80.333 70.8887 76.7513 70.8887 72.333V38.9997ZM22.2221 34.9997H17.5554C15.3463 34.9997 13.5554 36.7905 13.5554 38.9997V72.333C13.5554 74.5422 15.3463 76.333 17.5554 76.333H62.8887C65.0979 76.333 66.8887 74.5422 66.8887 72.333V38.9997C66.8887 36.7905 65.0979 34.9997 62.8887 34.9997H56.2221H22.2221Z" fill="#4D1774"/>
<path fill-rule="evenodd" clip-rule="evenodd" d="M17.5554 34.9997C15.3463 34.9997 13.5554 36.7905 13.5554 38.9997V72.333C13.5554 74.5422 15.3463 76.333 17.5554 76.333H62.8887C65.0979 76.333 66.8887 74.5422 66.8887 72.333V38.9997C66.8887 36.7905 65.0979 34.9997 62.8887 34.9997H17.5554ZM40.2221 48.333C38.3811 48.333 36.8888 49.8254 36.8888 51.6663C36.8888 52.8046 37.4575 53.8105 38.3354 54.415C39.0691 54.9201 39.3803 55.8496 39.0986 56.6947L36.9969 62.9997H43.4472L41.3456 56.6947C41.0639 55.8496 41.3751 54.9201 42.1088 54.415C42.9867 53.8105 43.5554 52.8046 43.5554 51.6663C43.5554 49.8254 42.063 48.333 40.2221 48.333Z" fill="#4D1774" fill-opacity="0.12"/>
</g>
<defs>
<clipPath id="clip0_559_2670">
<rect width="80" height="80" fill="white" transform="translate(0 0.333008)"/>
</clipPath>
</defs>
</svg>
